<svg xmlns="http://www.w3.org/2000/svg" viewBox="0 0 512 512">
  <!-- Background circle -->
  <circle cx="256" cy="256" r="256" fill="#03030A"/>
  <!-- Gold ring -->
  <circle cx="256" cy="256" r="240" fill="none" stroke="#F5C842" stroke-width="8" opacity="0.4"/>
  <!-- Soccer ball hexagon pattern center -->
  <circle cx="256" cy="220" r="110" fill="#0D0D18" stroke="#F5C842" stroke-width="3"/>
  <!-- Soccer ball lines -->
  <path d="M256 130 L296 158 L282 203 H230 L216 158 Z" fill="#F5C842" opacity="0.9"/>
  <path d="M296 158 L340 160 L350 205 L310 235 L282 203 Z" fill="#1A1A2E" stroke="#F5C842" stroke-width="2"/>
  <path d="M216 158 L172 160 L162 205 L202 235 L230 203 Z" fill="#1A1A2E" stroke="#F5C842" stroke-width="2"/>
  <path d="M282 203 L310 235 L290 275 H222 L202 235 L230 203 Z" fill="#1A1A2E" stroke="#F5C842" stroke-width="2"/>
  <path d="M350 205 L366 248 L340 280 L310 235 Z" fill="#F5C842" opacity="0.6"/>
  <path d="M162 205 L146 248 L172 280 L202 235 Z" fill="#F5C842" opacity="0.6"/>
  <path d="M290 275 L300 312 L256 330 L212 312 L222 275 Z" fill="#F5C842" opacity="0.7"/>
  <!-- M A letters -->
  <text x="256" y="420" font-family="Arial Black, sans-serif" font-size="88" font-weight="900" fill="#F5C842" text-anchor="middle" letter-spacing="4">M</text>
  <!-- Pro badge -->
  <rect x="176" y="430" width="160" height="38" rx="19" fill="#F5C842"/>
  <text x="256" y="456" font-family="Arial, sans-serif" font-size="22" font-weight="900" fill="#03030A" text-anchor="middle" letter-spacing="3">PRO V6</text>
  <!-- Stars -->
  <text x="90" y="310" font-size="28" fill="#F5C842" opacity="0.8">★</text>
  <text x="394" y="310" font-size="28" fill="#F5C842" opacity="0.8">★</text>
</svg>